<svg version="1.1" xmlns="http://www.w3.org/2000/svg" xmlns:xlink="http://www.w3.org/1999/xlink" width="386.22484" height="278.13402" viewBox="0,0,386.22484,278.13402"><g transform="translate(-48.45472,-8.40288)"><g data-paper-data="{&quot;isPaintingLayer&quot;:true}" fill-rule="nonzero" stroke-linecap="butt" stroke-linejoin="miter" stroke-miterlimit="10" stroke-dasharray="" stroke-dashoffset="0" style="mix-blend-mode: normal"><path d="M238.58674,73.4631c21.5926,0 39.09687,15.23569 39.09687,34.02989c0,18.79418 -17.50427,34.02989 -39.09687,34.02989c-21.5926,0 -39.09687,-15.23569 -39.09687,-34.02989c0,-18.79418 17.50427,-34.02989 39.09687,-34.02989z" fill="#00ffff" stroke="none" stroke-width="0"/><text transform="translate(48.45472,147.34507) scale(3.13427,2.81806)" font-size="40" xml:space="preserve" fill="#ff0000" fill-rule="nonzero" stroke-opacity="0" stroke="#000000" stroke-width="0" stroke-linecap="butt" stroke-linejoin="miter" stroke-miterlimit="10" stroke-dasharray="" stroke-dashoffset="0" font-family="Sans Serif" font-weight="normal" text-anchor="start" style="mix-blend-mode: normal"><tspan x="0" dy="0">♥</tspan></text><text transform="translate(293.83561,154.63335) scale(3.39383,3.36162)" font-size="40" xml:space="preserve" fill="#ffff3b" fill-rule="nonzero" stroke="none" stroke-width="1" stroke-linecap="butt" stroke-linejoin="miter" stroke-miterlimit="10" stroke-dasharray="" stroke-dashoffset="0" font-family="Sans Serif" font-weight="normal" text-anchor="start" style="mix-blend-mode: normal"><tspan x="0" dy="0">★</tspan></text><path d="M280.51013,263.18731c0,30.59139 -18.38627,22.33492 -38.86277,22.33492c-20.47649,0 -41.54296,4.68288 -41.54296,-25.90851c0,-21.71397 5.25343,-66.08428 18.73633,-83.78546c5.51227,-7.23686 16.86449,-1.08725 22.80663,-1.08725c6.60532,0 15.67333,-8.27407 21.29663,0.90931c11.80893,19.28509 17.56614,66.81379 17.56614,87.53698z" fill="#00ffff" stroke="none" stroke-width="0"/></g></g></svg>